<svg xmlns="http://www.w3.org/2000/svg" viewBox="0 0 115.71 115.69"><defs><style>.cls-1{fill:#193a72;}</style></defs><g id="Ebene_2" data-name="Ebene 2"><g id="Ebene_1-2" data-name="Ebene 1"><path class="cls-1" d="M111.67,36.64a59,59,0,0,0-7.37-13.26,55.34,55.34,0,0,0-4.65-5.46c-.66-.71-1.37-1.37-2.07-2a59,59,0,0,0-6.22-5.15c-1-.73-2-1.41-3.08-2.07-.74-.47-1.51-.9-2.27-1.33-.27-.14-.5-.29-.77-.44a59.56,59.56,0,0,0-8.66-3.78A57.4,57.4,0,0,0,59.33,0c-.49,0-1,0-1.48,0A57.37,57.37,0,0,0,32.21,6c-.85.41-1.7.84-2.51,1.3a56.26,56.26,0,0,0-8.74,6c-1.14.95-2.25,2-3.32,3A57.87,57.87,0,0,0,30.1,108.58c1.52.85,3.1,1.6,4.71,2.31a57.61,57.61,0,0,0,13.53,4c.56.09,1.13.17,1.69.24a57.7,57.7,0,0,0,7.82.55c1.44,0,2.86-.06,4.25-.18h.08a57.51,57.51,0,0,0,13.47-2.63l.13,0c.23-.07.45-.16.69-.24.85-.28,1.7-.6,2.53-.92q2.5-1,4.9-2.19a59.45,59.45,0,0,0,5.62-3.26c.58-.38,1.15-.81,1.72-1.2a58.15,58.15,0,0,0,20.43-26,57.64,57.64,0,0,0,0-42.4ZM89.92,94.4c-.15.12-.27.26-.4.36l-1.24,1C86.86,96.93,85.4,98,83.9,98.92a50.73,50.73,0,0,1-5,2.8c-1,.48-2.07.92-3.14,1.34l-.13.06-1.19.41c-1.17.42-2.36.81-3.56,1.14a47.05,47.05,0,0,1-5.73,1.25c-1,.15-2,.28-3,.37l-1,.07c-1.1.08-2.2.13-3.32.13a49.31,49.31,0,0,1-7.82-.64c-.56-.09-1.13-.18-1.69-.29A48.73,48.73,0,0,1,21,89.54a48.87,48.87,0,0,1,0-63.4,49.83,49.83,0,0,1,9.14-8.26A51.15,51.15,0,0,1,34.81,15a48.61,48.61,0,0,1,23-5.81l.93,0c1.11,0,2.19.08,3.28.18a47.73,47.73,0,0,1,9.55,1.83,42.57,42.57,0,0,1,4.17,1.41c.26.1.53.2.8.32a49.39,49.39,0,0,1,5.78,2.88c.52.3,1,.62,1.54.94,1.5,1,3,2,4.38,3.11A48.64,48.64,0,0,1,89.92,94.4Z"/><path class="cls-1" d="M85.18,77.57a5.86,5.86,0,0,1-.84.74,11.08,11.08,0,0,1-3.7,1.59c-1.4.37-2.88.72-4.57,1.07-1.08.21-2.23.39-3.75.58-1,.13-2,.2-2.92.27h-.18L66.67,82l-.55,0v.08H61.18V90h0c1,0,2,0,3,0h1.13v0h.18l1.11-.07c.82,0,1.68-.09,2.53-.16h.19c.8,0,1.61-.12,2.4-.2.16,0,.32,0,.48,0,1.5-.19,2.64-.37,3.71-.59,1.66-.33,3.14-.67,4.51-1a11,11,0,0,0,3.48-1.47,6.88,6.88,0,0,0,1-1v0s0,0,0,0,0-.13,0-.2a.5.5,0,0,0-.08-.29l.2-.15a7.43,7.43,0,0,0,.13-1.42c0-.54,0-1.1-.06-1.66C85.22,80.23,85.21,78.91,85.18,77.57Z"/><path class="cls-1" d="M61.18,78.16v1.32h.74c8.78.08,17.51-1.41,22.76-4.74.71-.13.16-1.08.14-1.79.55-2.3-.14-4.17-1-6.11-1.3-10.65-2-21.43-3.12-32.1-.17-.88-.37-2-.57-3.11-.87-4.82-4.26-10-8.86-10H61.54V41.53l-.36.14L50.12,45.89,50,22.05,30.91,27.22V90.87l19.37-5.46-.11-26.93,11-4.33Zm19.5-21.51s0,.09,0,.13c0,.27,0,.91-.64.94h0a.7.7,0,0,1-.67-.62c-.06-.61.13-.94.57-1A.68.68,0,0,1,80.68,56.65Zm-.63-5.28c.23,2.5.28,2.9.29,3a.66.66,0,0,1-.52.78h-.13a.66.66,0,0,1-.65-.53c0-.1-.06-.32-.31-3.1a.66.66,0,1,1,1.32-.12ZM68.91,23.31c5,0,8.6,5.43,9.52,10.55.09.56.45,4.75,1,11.08l.28,3.28a.66.66,0,0,1-.61.71h0a.66.66,0,0,1-.66-.61l-.28-3.28c-.41-4.88-.88-10.41-1-11-.82-4.58-4-9.45-8.21-9.45a.67.67,0,0,1,0-1.33Zm-1,15.16a1.86,1.86,0,0,0,1,.56,6.17,6.17,0,0,1,1.45.78l-.75.53.33,2.88a60.66,60.66,0,0,1,.59,9.14c0,.85-.09-.85-.17,0,0,.14,0,2.83,0,3a25.31,25.31,0,0,1-.52,3.58c-.11.47-.24.94-.37,1.4-.18.64-.37,1.28-.55,1.92q-.9,3.06-1.92,6.06c-.18.5-.38,1-.53,1.51A4.71,4.71,0,0,0,66.33,71,15,15,0,0,1,66,74.14a4.74,4.74,0,0,1-2,3c.66-8.16.61-16.34.57-24.5q0-3.4,0-6.8c0-3.61,0-7.21-.32-10.79a6.49,6.49,0,0,1,.22-3c.26-.62.73-1.27.52-1.9-.12-.33-1.25-1.36-.49-1.73-.32,0-.17-.2,0-.28a1,1,0,0,1,.66.11,5.29,5.29,0,0,1,3,5c0,1.39-.51,2.75-.51,4.15A1.67,1.67,0,0,0,67.92,38.47ZM64.25,23.31h2.57a.67.67,0,0,1,0,1.33H64.25a.67.67,0,0,1,0-1.33Z"/></g></g></svg>