<?xml version="1.0" encoding="UTF-8"?><svg id="Ebene_2" xmlns="http://www.w3.org/2000/svg" viewBox="0 0 163.81 163.81"><defs><style>.cls-1{fill:#2a3287;}</style></defs><g id="Ebene_1-2"><g><g><path class="cls-1" d="M120.7,109.89c-.38,.4-.75,.75-1.19,1.06-1.72,1.23-3.62,1.83-5.26,2.26-1.98,.53-4.09,1.02-6.48,1.51-1.53,.3-3.17,.57-5.31,.83-1.4,.19-2.79,.28-4.15,.38l-.26,.02c-1.21,.08-2.43,.15-3.62,.23-.26,0-.53,.02-.77,.04v.11h-5.96c-.34-.02-.68-.02-1.02-.02h-.04v11.18h.06c1.41,.04,2.85,.02,4.24,.02h1.6v-.06h.26c.51-.04,1.04-.08,1.56-.09,1.17-.08,2.39-.13,3.6-.23l.26-.02c1.13-.08,2.28-.17,3.41-.28,.23-.04,.45-.04,.68-.08,2.13-.26,3.75-.53,5.26-.83,2.36-.47,4.47-.96,6.41-1.49,1.55-.41,3.34-.98,4.94-2.09,.51-.38,.96-.85,1.47-1.41,0,0,.02-.02,.02-.04,.02,0,.02-.02,.04-.04,.02-.09,.06-.19,.08-.28,.02-.17-.06-.32-.11-.41l.28-.21c.13-.66,.19-1.34,.19-2.02,0-.77-.08-1.56-.09-2.36-.04-1.88-.06-3.77-.09-5.67Z"/><path class="cls-1" d="M86.64,110.74v1.87c.34,.02,.7,.02,1.06,.02,12.46,.11,24.84-2,32.29-6.73,1.02-.19,.23-1.53,.21-2.54,.77-3.26-.21-5.92-1.45-8.67-1.85-15.12-2.85-30.4-4.43-45.56-.25-1.24-.53-2.77-.81-4.41-1.23-6.84-6.03-14.19-12.57-14.19h-13.78v28.23l-.51,.19-15.7,5.99-.14-33.83-27.12,7.33v90.33l27.48-7.74-.15-38.22,15.63-6.15v34.08Zm27.67-30.53c.01,.06,.02,.12,.02,.18,0,.38,0,1.29-.91,1.33h-.04c-.48,0-.9-.39-.95-.88-.08-.86,.19-1.34,.8-1.43,.5-.1,.98,.3,1.08,.79Zm-.88-7.49c.31,3.54,.39,4.11,.41,4.2,.1,.51-.24,1.01-.75,1.1-.06,.01-.12,.02-.18,.02-.44,0-.83-.31-.92-.76-.03-.13-.09-.45-.43-4.4-.05-.52,.34-.98,.86-1.02,.48-.07,.98,.34,1.02,.86Zm-15.81-39.83c7.03,0,12.2,7.71,13.5,14.97,.14,.81,.65,6.75,1.4,15.72l.39,4.65c.04,.52-.34,.98-.86,1.02-.03,0-.05,0-.08,0-.48,0-.9-.37-.94-.86l-.39-4.65c-.58-6.93-1.25-14.78-1.38-15.56-1.16-6.5-5.64-13.41-11.64-13.41-.52,0-.94-.42-.94-.94s.42-.94,.94-.94Zm-1.41,21.51c.34,.48,.87,.62,1.35,.8,.72,.27,1.41,.64,2.05,1.1-.35,.25-.71,.51-1.06,.76,.16,1.36,.32,2.73,.47,4.09,.5,4.29,1,8.62,.84,12.97-.04,1.21-.14-1.2-.25,0-.02,.2-.04,4.01-.06,4.21-.16,1.71-.35,3.42-.73,5.08-.16,.67-.34,1.33-.53,1.99-.26,.91-.52,1.81-.78,2.72-.85,2.89-1.76,5.76-2.73,8.6-.24,.71-.53,1.42-.75,2.15-.16,.54-.07,1.12-.09,1.7-.04,1.5-.11,3.01-.47,4.47-.44,1.79-1.37,3.52-2.77,4.32,.93-11.57,.87-23.18,.8-34.77-.02-3.22-.04-6.43-.05-9.65-.03-5.11-.06-10.24-.45-15.31-.11-1.41-.23-2.9,.3-4.18,.37-.88,1.05-1.8,.74-2.69-.17-.48-1.77-1.94-.69-2.47-.45,0-.24-.28,.02-.38,.31-.13,.64,.03,.93,.15,2.44,.98,4.36,3.89,4.27,7.09-.06,1.98-.71,3.91-.71,5.89,0,.49,.06,.99,.33,1.37Zm-5.2-21.51h3.64c.52,0,.94,.42,.94,.94s-.42,.94-.94,.94h-3.64c-.52,0-.94-.42-.94-.94s.42-.94,.94-.94Z"/></g><path class="cls-1" d="M81.91,0C36.67,0,0,36.67,0,81.91s36.67,81.91,81.91,81.91,81.91-36.67,81.91-81.91S127.14,0,81.91,0Zm0,150.91c-38.11,0-69-30.89-69-69S43.8,12.91,81.91,12.91s69,30.89,69,69-30.89,69-69,69Z"/></g></g></svg>